<svg width="12" height="14" viewBox="0 0 12 14" fill="none" xmlns="http://www.w3.org/2000/svg">
<path fill-rule="evenodd" clip-rule="evenodd" d="M9.75 1.5C9.3358 1.5 9 1.83579 9 2.25C9 2.66421 9.3358 3 9.75 3C10.1642 3 10.5 2.66421 10.5 2.25C10.5 1.83579 10.1642 1.5 9.75 1.5ZM7.5 2.25C7.5 1.00736 8.5074 0 9.75 0C10.9926 0 12 1.00736 12 2.25C12 3.22966 11.3739 4.06309 10.5 4.37197V5C10.5 6.38071 9.3807 7.5 8 7.5H4C3.44772 7.5 3 7.94772 3 8.5V9.628C3.87389 9.9369 4.5 10.7703 4.5 11.75C4.5 12.9926 3.49264 14 2.25 14C1.00736 14 0 12.9926 0 11.75C0 10.7703 0.62611 9.9369 1.5 9.628V8.5V4.37197C0.62611 4.06309 0 3.22966 0 2.25C0 1.00736 1.00736 0 2.25 0C3.49264 0 4.5 1.00736 4.5 2.25C4.5 3.22966 3.87389 4.06309 3 4.37197V6.20802C3.30623 6.07422 3.64445 6 4 6H8C8.5523 6 9 5.55228 9 5V4.37197C8.1261 4.06309 7.5 3.22966 7.5 2.25ZM2.25 11C1.83579 11 1.5 11.3358 1.5 11.75C1.5 12.1642 1.83579 12.5 2.25 12.5C2.66421 12.5 3 12.1642 3 11.75C3 11.3358 2.66421 11 2.25 11ZM1.5 2.25C1.5 1.83579 1.83579 1.5 2.25 1.5C2.66421 1.5 3 1.83579 3 2.25C3 2.66421 2.66421 3 2.25 3C1.83579 3 1.5 2.66421 1.5 2.25Z" fill="#1F2328"/>
</svg>
